<?xml version="1.0" encoding="UTF-8" standalone="no"?>
<!-- Created with Inkscape (http://www.inkscape.org/) -->

<svg
   xmlns:dc="http://purl.org/dc/elements/1.1/"
   xmlns:cc="http://creativecommons.org/ns#"
   xmlns:rdf="http://www.w3.org/1999/02/22-rdf-syntax-ns#"
   xmlns:svg="http://www.w3.org/2000/svg"
   xmlns="http://www.w3.org/2000/svg"
   xmlns:sodipodi="http://sodipodi.sourceforge.net/DTD/sodipodi-0.dtd"
   xmlns:inkscape="http://www.inkscape.org/namespaces/inkscape"
   width="7.9375mm"
   height="7.9375mm"
   viewBox="0 0 7.9375 7.9375"
   version="1.1"
   id="svg15372"
   inkscape:version="0.92.3 (2405546, 2018-03-11)"
   sodipodi:docname="social-snapchat-white.svg">
  <defs
     id="defs15366" />
  <sodipodi:namedview
     id="base"
     pagecolor="#ffffff"
     bordercolor="#666666"
     borderopacity="1.0"
     inkscape:pageopacity="0.0"
     inkscape:pageshadow="2"
     inkscape:zoom="0.35"
     inkscape:cx="-49.285714"
     inkscape:cy="657.85715"
     inkscape:document-units="mm"
     inkscape:current-layer="layer1"
     showgrid="false"
     inkscape:window-width="1600"
     inkscape:window-height="837"
     inkscape:window-x="1912"
     inkscape:window-y="176"
     inkscape:window-maximized="1" />
  <metadata
     id="metadata15369">
    <rdf:RDF>
      <cc:Work
         rdf:about="">
        <dc:format>image/svg+xml</dc:format>
        <dc:type
           rdf:resource="http://purl.org/dc/dcmitype/StillImage" />
        <dc:title></dc:title>
      </cc:Work>
    </rdf:RDF>
  </metadata>
  <g
     inkscape:label="Layer 1"
     inkscape:groupmode="layer"
     id="layer1"
     transform="translate(6.9925595,-314.95387)">
    <path
       style="clip-rule:evenodd;fill:#ffffff;fill-rule:evenodd;stroke-width:0.26458332"
       inkscape:connector-curvature="0"
       id="path46"
       d="m -5.4050595,314.95387 c -0.8757709,0 -1.5875,0.71173 -1.5875,1.5875 v 4.7625 c 0,0.87577 0.7117291,1.5875 1.5875,1.5875 h 4.76249998 c 0.8757708,0 1.5875,-0.71173 1.5875,-1.5875 v -4.7625 c 0,-0.87577 -0.7117292,-1.5875 -1.5875,-1.5875 z m 3.7279792,2.24631 c 0.1005416,0.28575 0.066146,0.53181 0.066146,0.81756 v 0.38894 c 0.2672292,0.0714 0.2328333,0 0.4339167,0 0.066146,0 0.26458328,0.037 0.26458328,0.17992 0,0.24871 -0.66410418,0.24871 -0.66410418,0.56621 0,0.2487 0.4656667,0.85195 0.73289588,0.96043 0.1322916,0.0714 0.2989791,0.14023 0.4656666,0.21167 v 0.10583 c -0.2328335,0.21432 -0.5000627,0.21432 -0.69850018,0.28575 -0.034396,0.10584 -0.068792,0.24871 -0.1349375,0.32015 -0.2328333,0.0344 -0.5318125,-0.0714 -0.7646458,0.0344 -0.2989792,0.10583 -0.5662083,0.39158 -0.8307917,0.46302 -0.068792,0.0344 -0.1349375,0.0344 -0.2010833,0.0344 -0.5318125,0 -0.4656667,-0.2831 -1.1641667,-0.53181 -0.2010833,-0.0714 -0.4339166,0.0344 -0.66675,0 -0.066146,-0.0714 -0.066146,-0.17727 -0.1322916,-0.28575 -0.1666875,-0.10583 -0.5318125,-0.10583 -0.6985,-0.32015 v -0.10583 c 0.5000625,-0.0714 1.1985625,-0.78052 1.1985625,-1.1721 0,-0.3175 -0.66675,-0.3175 -0.66675,-0.56621 0,-0.21431 0.2328333,-0.17992 0.2328333,-0.17992 0.1005417,0 0.2010833,0.037 0.4339167,0.0714 0.03175,-0.21167 0,-0.60325 0,-0.67469 0,-0.92339 0.5635625,-1.52664 1.42875,-1.52664 0.5344583,0 1.1006666,0.17727 1.36525,0.92339 z" />
  </g>
</svg>
