<?xml version="1.0" encoding="UTF-8" standalone="no"?>
<!-- Created with Inkscape (http://www.inkscape.org/) -->

<svg
   xmlns:dc="http://purl.org/dc/elements/1.1/"
   xmlns:cc="http://creativecommons.org/ns#"
   xmlns:rdf="http://www.w3.org/1999/02/22-rdf-syntax-ns#"
   xmlns:svg="http://www.w3.org/2000/svg"
   xmlns="http://www.w3.org/2000/svg"
   xmlns:sodipodi="http://sodipodi.sourceforge.net/DTD/sodipodi-0.dtd"
   xmlns:inkscape="http://www.inkscape.org/namespaces/inkscape"
   width="7.9375mm"
   height="7.9348502mm"
   viewBox="0 0 7.9375 7.9348502"
   version="1.1"
   id="svg14806"
   inkscape:version="0.92.3 (2405546, 2018-03-11)"
   sodipodi:docname="social-youtube-white.svg">
  <defs
     id="defs14800" />
  <sodipodi:namedview
     id="base"
     pagecolor="#ffffff"
     bordercolor="#666666"
     borderopacity="1.0"
     inkscape:pageopacity="0.0"
     inkscape:pageshadow="2"
     inkscape:zoom="0.35"
     inkscape:cx="-46.428571"
     inkscape:cy="412.13793"
     inkscape:document-units="mm"
     inkscape:current-layer="layer1"
     showgrid="false"
     inkscape:window-width="1600"
     inkscape:window-height="837"
     inkscape:window-x="1912"
     inkscape:window-y="176"
     inkscape:window-maximized="1" />
  <metadata
     id="metadata14803">
    <rdf:RDF>
      <cc:Work
         rdf:about="">
        <dc:format>image/svg+xml</dc:format>
        <dc:type
           rdf:resource="http://purl.org/dc/dcmitype/StillImage" />
        <dc:title></dc:title>
      </cc:Work>
    </rdf:RDF>
  </metadata>
  <g
     inkscape:label="Layer 1"
     inkscape:groupmode="layer"
     id="layer1"
     transform="translate(7.7485119,-249.94331)">
    <path
       style="clip-rule:evenodd;fill:#ffffff;fill-rule:evenodd;stroke-width:0.26458332"
       inkscape:connector-curvature="0"
       id="path44"
       d="m -4.6317202,254.71372 h -0.3386667 v 1.67482 c 0,0.13758 0.089958,0.24606 0.238125,0.24606 0.1296458,0 0.2883958,-0.09 0.4101042,-0.2249 v 0.19315 h 0.3466041 v -1.88913 h -0.3386666 v 1.44198 c -0.097896,0.11642 -0.1375834,0.16669 -0.2275417,0.16669 -0.050271,0 -0.079375,-0.0106 -0.089958,-0.09 z m 2.968625,0.46567 v 0.24606 h -0.3386667 v -0.20637 c 0.010583,-0.127 0.029104,-0.21431 0.1693333,-0.21431 0.089958,0 0.1693334,0.0688 0.1693334,0.17462 z m 0.3598333,0.0503 c 0,-0.30162 -0.1905,-0.5371 -0.5291667,-0.5371 -0.2592916,0 -0.4974166,0.11641 -0.5185833,0.48683 v 0.96573 c 0,0.16669 0.1693333,0.44979 0.3995208,0.46831 0.039687,0 0.1084792,0.0212 0.1296459,0.0212 0.2196041,0 0.4788958,-0.13758 0.5185833,-0.46831 v -0.21432 h -0.3598333 v 0.22225 c -0.039687,0.10848 -0.079375,0.14817 -0.1693334,0.14817 -0.1084791,0 -0.1693333,-0.0688 -0.1799166,-0.22489 v -0.381 h 0.7090833 z m -1.6853958,-0.0397 v 0.92605 c 0,0.11377 -0.039688,0.20637 -0.1481667,0.20637 -0.03175,0 -0.1508125,-0.0503 -0.1693333,-0.09 v -1.14829 c 0.039688,-0.0503 0.1084791,-0.0794 0.1693333,-0.0794 0.097896,0 0.1481667,0.11641 0.1481667,0.1852 z m -0.3280834,-1.12183 h -0.3386666 v 2.53471 h 0.3386666 c 0,-0.0582 0,-0.11642 0.010583,-0.17463 0.1190625,0.127 0.2275416,0.20638 0.3571875,0.20638 0.2910416,0 0.3095625,-0.31221 0.3201458,-0.51858 l -0.010583,-1.06098 c 0,-0.21696 -0.1402292,-0.37042 -0.3095625,-0.37042 -0.1084792,0 -0.2672292,0.0767 -0.3571875,0.20373 z m -1.7145,0 h -1.2144375 v 0.34131 h 0.396875 v 2.1934 h 0.3995209 v -2.1934 h 0.4180416 z m 1.3361459,-2.4765 c 0,-0.0953 -0.071437,-0.16404 -0.1693334,-0.16404 -0.089958,0 -0.1190625,0 -0.15875,0.14552 v 1.02394 c 0,0.0767 0.068792,0.1561 0.15875,0.1561 0.079375,0 0.15875,-0.0503 0.1693334,-0.18521 z m -2.4659167,-1.64835 c -0.8757708,0 -1.5875,0.70908 -1.5875,1.5875 v 4.75985 c 0,0.87842 0.7117292,1.5875 1.5875,1.5875 h 4.7625 c 0.8757708,0 1.5875,-0.70908 1.5875,-1.5875 v -4.75985 c 0,-0.87842 -0.7117292,-1.5875 -1.5875,-1.5875 z m 0.2354792,3.51631 c 0,0 0.6773333,-0.0688 2.1457708,-0.0688 1.4657917,0 2.143125,0.0688 2.143125,0.0688 0.381,0.037 0.6058958,0.26723 0.6879167,0.64294 0,0 0.079375,0.36777 0.079375,1.26735 0,0.89958 -0.079375,1.27 -0.079375,1.27 -0.082021,0.37306 -0.3069167,0.60325 -0.6879167,0.64294 0,0 -0.6773333,0.0661 -2.143125,0.0661 -1.4684375,0 -2.1457708,-0.0661 -2.1457708,-0.0661 -0.381,-0.0397 -0.6058959,-0.26988 -0.6852709,-0.64294 0,0 -0.079375,-0.37042 -0.079375,-1.27 0,-0.89958 0.079375,-1.26735 0.079375,-1.26735 0.079375,-0.37571 0.3042709,-0.6059 0.6852709,-0.64294 z m 3.2252708,-2.32569 v 1.52136 c 0.010583,0.0582 0.03175,0.10848 0.1005417,0.10848 0.071438,0 0.15875,-0.0979 0.2301875,-0.16669 v -1.46315 h 0.3386666 v 1.90236 H -2.3695327 V 252.859 l -0.021167,-0.0185 c -0.1190625,0.13759 -0.2883958,0.2249 -0.396875,0.2249 -0.2407708,0 -0.2513542,-0.2249 -0.2513542,-0.3519 v -1.57956 z m -0.6455833,0.46831 v 0.94721 c -0.010583,0.34132 -0.269875,0.51594 -0.5185834,0.51594 -0.3783541,0 -0.5185833,-0.30162 -0.5185833,-0.57679 v -0.77788 c 0.010583,-0.39158 0.1984375,-0.60589 0.5185833,-0.60589 0.3095625,0 0.5185834,0.24341 0.5185834,0.49741 z m -2.0028959,-1.12977 0.2883959,1.00277 0.2778125,-1.00277 h 0.3783541 l -0.4683125,1.53988 v 1.02394 h -0.3783541 v -1.05305 c -0.1190625,-0.48683 -0.3280834,-0.99483 -0.4868334,-1.51077 z" />
  </g>
</svg>
