<?xml version="1.0" encoding="UTF-8" standalone="no"?>
<!-- Created with Inkscape (http://www.inkscape.org/) -->

<svg
   xmlns:dc="http://purl.org/dc/elements/1.1/"
   xmlns:cc="http://creativecommons.org/ns#"
   xmlns:rdf="http://www.w3.org/1999/02/22-rdf-syntax-ns#"
   xmlns:svg="http://www.w3.org/2000/svg"
   xmlns="http://www.w3.org/2000/svg"
   xmlns:sodipodi="http://sodipodi.sourceforge.net/DTD/sodipodi-0.dtd"
   xmlns:inkscape="http://www.inkscape.org/namespaces/inkscape"
   width="7.9375mm"
   height="7.9375mm"
   viewBox="0 0 7.9375 7.9375"
   version="1.1"
   id="svg13108"
   inkscape:version="0.92.3 (2405546, 2018-03-11)"
   sodipodi:docname="social-twitter-white.svg">
  <defs
     id="defs13102" />
  <sodipodi:namedview
     id="base"
     pagecolor="#ffffff"
     bordercolor="#666666"
     borderopacity="1.0"
     inkscape:pageopacity="0.0"
     inkscape:pageshadow="2"
     inkscape:zoom="0.35"
     inkscape:cx="-3.5714271"
     inkscape:cy="800.71429"
     inkscape:document-units="mm"
     inkscape:current-layer="layer1"
     showgrid="false"
     inkscape:window-width="1600"
     inkscape:window-height="837"
     inkscape:window-x="1912"
     inkscape:window-y="176"
     inkscape:window-maximized="1" />
  <metadata
     id="metadata13105">
    <rdf:RDF>
      <cc:Work
         rdf:about="">
        <dc:format>image/svg+xml</dc:format>
        <dc:type
           rdf:resource="http://purl.org/dc/dcmitype/StillImage" />
        <dc:title></dc:title>
      </cc:Work>
    </rdf:RDF>
  </metadata>
  <g
     inkscape:label="Layer 1"
     inkscape:groupmode="layer"
     id="layer1"
     transform="translate(19.087798,-352.75149)">
    <path
       style="clip-rule:evenodd;fill:#ffffff;fill-rule:evenodd;stroke-width:0.26458332"
       inkscape:connector-curvature="0"
       id="path40"
       d="m -17.500298,352.75149 c -0.87577,0 -1.5875,0.71173 -1.5875,1.5875 v 4.7625 c 0,0.87577 0.71173,1.5875 1.5875,1.5875 h 4.7625 c 0.875771,0 1.5875,-0.71173 1.5875,-1.5875 v -4.7625 c 0,-0.87577 -0.711729,-1.5875 -1.5875,-1.5875 z m 4.241271,2.19869 c 0.137584,0 0.550334,-0.2249 0.648229,-0.24607 -0.05821,0.14288 -0.235479,0.40746 -0.43127,0.5715 l 0.03969,0.0397 c 0.174625,-0.0397 0.351896,-0.10054 0.529167,-0.1614 -0.15875,0.20373 -0.333375,0.36513 -0.529167,0.56886 v 0.36512 c -0.275167,2.05582 -1.685396,3.01361 -3.116792,3.01361 -0.529166,0 -1.156229,-0.20373 -1.645708,-0.48948 0.07937,0 0.177271,0.0212 0.214313,0.0212 0.43127,0 1.058333,-0.25136 1.468437,-0.53711 0,0 -0.05027,0.005 -0.134937,0.008 -0.428625,0.0106 -0.881063,-0.3466 -0.960438,-0.75406 0.156104,0 0.314854,0 0.470958,-0.0397 -0.373062,-0.0609 -0.862541,-0.59002 -0.862541,-0.95779 v -0.1614 c 0.116416,0.0609 0.195791,0.10054 0.449791,0.12171 -0.333375,-0.28575 -0.449791,-0.65088 -0.449791,-0.95515 0,-0.16404 0.05821,-0.36777 0.137583,-0.52916 0.685271,0.7911 1.489604,1.11918 2.25425,1.18004 0.01852,-0.10319 0,-0.2249 0,-0.32544 0.05821,-0.69321 0.547688,-1.0795 1.076854,-1.0795 0.449792,0 0.783167,0.34661 0.841375,0.34661 z" />
  </g>
</svg>
