<?xml version="1.0" encoding="UTF-8" standalone="no"?>
<!-- Created with Inkscape (http://www.inkscape.org/) -->

<svg
   xmlns:dc="http://purl.org/dc/elements/1.1/"
   xmlns:cc="http://creativecommons.org/ns#"
   xmlns:rdf="http://www.w3.org/1999/02/22-rdf-syntax-ns#"
   xmlns:svg="http://www.w3.org/2000/svg"
   xmlns="http://www.w3.org/2000/svg"
   xmlns:sodipodi="http://sodipodi.sourceforge.net/DTD/sodipodi-0.dtd"
   xmlns:inkscape="http://www.inkscape.org/namespaces/inkscape"
   width="7.9375mm"
   height="7.9375mm"
   viewBox="0 0 7.9375 7.9375"
   version="1.1"
   id="svg17070"
   inkscape:version="0.92.3 (2405546, 2018-03-11)"
   sodipodi:docname="social-chat-white.svg">
  <defs
     id="defs17064" />
  <sodipodi:namedview
     id="base"
     pagecolor="#ffffff"
     bordercolor="#666666"
     borderopacity="1.0"
     inkscape:pageopacity="0.0"
     inkscape:pageshadow="2"
     inkscape:zoom="0.35"
     inkscape:cx="-40.714286"
     inkscape:cy="700.71427"
     inkscape:document-units="mm"
     inkscape:current-layer="layer1"
     showgrid="false"
     inkscape:window-width="1600"
     inkscape:window-height="837"
     inkscape:window-x="1912"
     inkscape:window-y="176"
     inkscape:window-maximized="1" />
  <metadata
     id="metadata17067">
    <rdf:RDF>
      <cc:Work
         rdf:about="">
        <dc:format>image/svg+xml</dc:format>
        <dc:type
           rdf:resource="http://purl.org/dc/dcmitype/StillImage" />
        <dc:title></dc:title>
      </cc:Work>
    </rdf:RDF>
  </metadata>
  <g
     inkscape:label="Layer 1"
     inkscape:groupmode="layer"
     id="layer1"
     transform="translate(9.2604167,-326.29315)">
    <path
       style="clip-rule:evenodd;fill:#ffffff;fill-rule:evenodd;stroke-width:0.26458332"
       inkscape:connector-curvature="0"
       id="path48"
       d="m -3.3099375,330.46828 c 0,-0.12435 -0.1481667,-0.20373 -0.2487084,-0.20373 -0.1084791,0 -0.2010833,0.0926 -0.2010833,0.20373 0,0.10054 0.084667,0.20108 0.2010833,0.20108 0.1005417,0 0.2487084,-0.0714 0.2487084,-0.20108 z m -1.1350625,0 c 0,-0.13229 -0.1481667,-0.20373 -0.2487084,-0.20373 -0.1084791,0 -0.2037291,0.0926 -0.2037291,0.20373 0,0.10054 0.087313,0.20108 0.2037291,0.20108 0.1005417,0 0.2487084,-0.0635 0.2487084,-0.20108 z m -0.6693959,-1.45256 c 0,-0.15611 -0.1005416,-0.25665 -0.2566458,-0.25665 -0.1402292,0 -0.3042708,0.0926 -0.3042708,0.25665 0,0.15346 0.1640416,0.254 0.3042708,0.254 0.1561042,0 0.2566458,-0.10054 0.2566458,-0.254 z m -1.4472708,0 c 0,-0.15611 -0.1005417,-0.25665 -0.2566458,-0.25665 -0.1402292,0 -0.301625,0.0926 -0.301625,0.25665 0,0.15346 0.1613958,0.254 0.301625,0.254 0.1561041,0 0.2566458,-0.10054 0.2566458,-0.254 z m -1.11125,-2.72257 c -0.8757708,0 -1.5875,0.71173 -1.5875,1.5875 v 4.7625 c 0,0.87578 0.7117292,1.5875 1.5875,1.5875 h 4.7625 c 0.8757708,0 1.5875,-0.71172 1.5875,-1.5875 v -4.7625 c 0,-0.87577 -0.7117292,-1.5875 -1.5875,-1.5875 z m 5.2175833,4.22011 c 0.047625,0.10848 0.0635,0.23283 0.071438,0.34925 l 0.00265,0.1561 c 0,0.0159 -0.015875,0.10584 -0.018521,0.11642 -0.050275,0.3175 -0.341317,0.72231 -0.7011503,1.00277 l 0.1561042,0.50535 -0.5741459,-0.30427 c -0.2116666,0.0476 -0.4445,0.10055 -0.6376458,0.10055 -0.5450417,0 -1.2832292,-0.24871 -1.61925,-0.97103 -0.015875,-0.0291 -0.1005417,-0.33337 -0.1005417,-0.40216 v -0.26459 c 0.1481667,-1.00277 1.0503959,-1.36789 1.7409584,-1.36789 0.5926666,0 1.3705416,0.27252 1.6801041,1.0795 z m -3.4977916,-2.63261 c 0.1005416,0.008 0.1931458,0.0317 0.301625,0.0397 0.4894791,0.0609 1.3387916,0.55827 1.524,1.20386 0.015875,0.0609 0.047625,0.13229 0.0635,0.20108 -0.0635,0 -0.1878542,-0.008 -0.2010834,-0.008 -0.889,0 -1.7515416,0.65352 -1.7515416,1.64042 0,0.12964 0.023813,0.27781 0.0635,0.43391 -0.0635,0.008 -0.1719792,0.008 -0.1957917,0.008 -0.2407708,0 -0.4577292,-0.0317 -0.714375,-0.10054 l -0.7170208,0.35719 0.2037291,-0.61383 c -0.023813,-0.0159 -0.055562,-0.0476 -0.079375,-0.0635 -0.428625,-0.30163 -0.6852708,-0.73819 -0.73025,-1.08744 -0.00794,-0.045 -0.015875,-0.12436 -0.015875,-0.14023 v -0.23283 c 0.015875,-0.18521 0.060854,-0.3863 0.1561042,-0.57415 0.2804583,-0.59796 0.9392708,-0.93927 1.4155208,-1.02394 0.092604,-0.0159 0.1931459,-0.0238 0.2936875,-0.0397 z" />
  </g>
</svg>
