<?xml version="1.0" encoding="UTF-8" standalone="no"?>
<!-- Created with Inkscape (http://www.inkscape.org/) -->

<svg
   xmlns:dc="http://purl.org/dc/elements/1.1/"
   xmlns:cc="http://creativecommons.org/ns#"
   xmlns:rdf="http://www.w3.org/1999/02/22-rdf-syntax-ns#"
   xmlns:svg="http://www.w3.org/2000/svg"
   xmlns="http://www.w3.org/2000/svg"
   xmlns:sodipodi="http://sodipodi.sourceforge.net/DTD/sodipodi-0.dtd"
   xmlns:inkscape="http://www.inkscape.org/namespaces/inkscape"
   width="7.9375mm"
   height="7.9348602mm"
   viewBox="0 0 7.9375 7.9348602"
   version="1.1"
   id="svg15938"
   inkscape:version="0.92.3 (2405546, 2018-03-11)"
   sodipodi:docname="social-tsr-white.svg">
  <defs
     id="defs15932" />
  <sodipodi:namedview
     id="base"
     pagecolor="#ffffff"
     bordercolor="#666666"
     borderopacity="1.0"
     inkscape:pageopacity="0.0"
     inkscape:pageshadow="2"
     inkscape:zoom="0.35"
     inkscape:cx="56.428573"
     inkscape:cy="129.28073"
     inkscape:document-units="mm"
     inkscape:current-layer="layer1"
     showgrid="false"
     inkscape:window-width="1600"
     inkscape:window-height="837"
     inkscape:window-x="1912"
     inkscape:window-y="176"
     inkscape:window-maximized="1" />
  <metadata
     id="metadata15935">
    <rdf:RDF>
      <cc:Work
         rdf:about="">
        <dc:format>image/svg+xml</dc:format>
        <dc:type
           rdf:resource="http://purl.org/dc/dcmitype/StillImage" />
        <dc:title></dc:title>
      </cc:Work>
    </rdf:RDF>
  </metadata>
  <g
     inkscape:label="Layer 1"
     inkscape:groupmode="layer"
     id="layer1"
     transform="translate(34.962798,-175.104)">
    <path
       style="clip-rule:evenodd;fill:#ffffff;fill-rule:evenodd;stroke-width:0.26458332"
       inkscape:connector-curvature="0"
       id="path36"
       d="m -29.623506,178.77377 h 0.283104 c 0.182563,0 0.296334,-0.008 0.343959,-0.0238 0.04498,-0.0159 0.07937,-0.0423 0.105833,-0.0794 0.02646,-0.0397 0.03969,-0.0873 0.03969,-0.14287 0,-0.0635 -0.01852,-0.11642 -0.05292,-0.1561 -0.03175,-0.0397 -0.08202,-0.0635 -0.142875,-0.0741 -0.03175,-0.005 -0.124354,-0.005 -0.277813,-0.005 h -0.298979 z m -3.751792,-3.66977 c -0.87577,0 -1.5875,0.70908 -1.5875,1.5875 v 4.7625 c 0,0.87577 0.71173,1.58486 1.5875,1.58486 h 4.7625 c 0.875771,0 1.5875,-0.70909 1.5875,-1.58486 v -4.7625 c 0,-0.87842 -0.711729,-1.5875 -1.5875,-1.5875 z m 0.354542,4.7625 v -1.57427 h -0.560917 v -0.32015 h 1.502834 v 0.32015 h -0.558271 v 1.57427 z m 1.060979,-0.61383 0.373063,-0.037 c 0.02117,0.12435 0.06615,0.21431 0.134937,0.27252 0.06879,0.0609 0.161396,0.09 0.277813,0.09 0.121708,0 0.214312,-0.0265 0.275166,-0.0794 0.0635,-0.0529 0.09525,-0.11377 0.09525,-0.18256 0,-0.045 -0.01323,-0.082 -0.03969,-0.11377 -0.02646,-0.0318 -0.07144,-0.0582 -0.137582,-0.082 -0.04498,-0.0159 -0.145521,-0.0423 -0.304271,-0.082 -0.203729,-0.0529 -0.346604,-0.11378 -0.431271,-0.18786 -0.113771,-0.10583 -0.171979,-0.23283 -0.171979,-0.38364 0,-0.0979 0.02646,-0.18786 0.08202,-0.27253 0.05292,-0.082 0.132291,-0.14816 0.235479,-0.1905 0.103187,-0.045 0.224896,-0.0661 0.370416,-0.0661 0.238125,0 0.415396,0.0529 0.534459,0.1561 0.121708,0.10584 0.182562,0.24607 0.1905,0.42334 l -0.383646,0.0132 c -0.01587,-0.0979 -0.05292,-0.16934 -0.105833,-0.21167 -0.05292,-0.0423 -0.132292,-0.0635 -0.240771,-0.0635 -0.108479,0 -0.195792,0.0212 -0.256646,0.0688 -0.04233,0.0291 -0.06085,0.0688 -0.06085,0.11642 0,0.045 0.01852,0.0847 0.05556,0.11641 0.04763,0.0397 0.166687,0.082 0.351896,0.127 0.185208,0.045 0.322791,0.09 0.410104,0.13494 0.08996,0.0476 0.15875,0.11377 0.209021,0.19315 0.05027,0.082 0.07673,0.18256 0.07673,0.30162 0,0.10848 -0.03175,0.21167 -0.08996,0.30692 -0.06086,0.0926 -0.145522,0.16404 -0.256647,0.20902 -0.111125,0.0476 -0.629708,0.18785 -0.963083,-0.0953 -0.129646,-0.10848 -0.206375,-0.27252 -0.230188,-0.48154 z m 1.952625,0.61383 v -1.89442 h 0.804334 c 0.203729,0 0.34925,0.0159 0.441854,0.0503 0.0926,0.0344 0.166687,0.0953 0.219604,0.18256 0.05556,0.0847 0.08467,0.18521 0.08467,0.29633 0,0.14288 -0.04233,0.25929 -0.127,0.3519 -0.08202,0.0926 -0.206375,0.15081 -0.373063,0.17727 0.08202,0.0476 0.150813,0.10054 0.203729,0.15875 0.05556,0.0556 0.127,0.15875 0.216959,0.30691 l 0.232833,0.37042 h -0.457729 l -0.275167,-0.41539 c -0.0979,-0.14553 -0.166687,-0.23813 -0.201083,-0.27782 -0.03704,-0.037 -0.07673,-0.0635 -0.116417,-0.0767 -0.03969,-0.0159 -0.105833,-0.0212 -0.193146,-0.0212 h -0.07673 v 0.7911 z" />
  </g>
</svg>
