<?xml version="1.0" encoding="UTF-8" standalone="no"?>
<!-- Created with Inkscape (http://www.inkscape.org/) -->

<svg
   xmlns:dc="http://purl.org/dc/elements/1.1/"
   xmlns:cc="http://creativecommons.org/ns#"
   xmlns:rdf="http://www.w3.org/1999/02/22-rdf-syntax-ns#"
   xmlns:svg="http://www.w3.org/2000/svg"
   xmlns="http://www.w3.org/2000/svg"
   xmlns:sodipodi="http://sodipodi.sourceforge.net/DTD/sodipodi-0.dtd"
   xmlns:inkscape="http://www.inkscape.org/namespaces/inkscape"
   width="7.9375mm"
   height="7.9375mm"
   viewBox="0 0 7.9375 7.9375"
   version="1.1"
   id="svg16504"
   inkscape:version="0.92.3 (2405546, 2018-03-11)"
   sodipodi:docname="social-pencil-white.svg">
  <defs
     id="defs16498" />
  <sodipodi:namedview
     id="base"
     pagecolor="#ffffff"
     bordercolor="#666666"
     borderopacity="1.0"
     inkscape:pageopacity="0.0"
     inkscape:pageshadow="2"
     inkscape:zoom="0.35"
     inkscape:cx="99.285713"
     inkscape:cy="434.99999"
     inkscape:document-units="mm"
     inkscape:current-layer="layer1"
     showgrid="false"
     inkscape:window-width="1600"
     inkscape:window-height="837"
     inkscape:window-x="1912"
     inkscape:window-y="176"
     inkscape:window-maximized="1" />
  <metadata
     id="metadata16501">
    <rdf:RDF>
      <cc:Work
         rdf:about="">
        <dc:format>image/svg+xml</dc:format>
        <dc:type
           rdf:resource="http://purl.org/dc/dcmitype/StillImage" />
        <dc:title></dc:title>
      </cc:Work>
    </rdf:RDF>
  </metadata>
  <g
     inkscape:label="Layer 1"
     inkscape:groupmode="layer"
     id="layer1"
     transform="translate(46.302083,-255.98958)">
    <path
       style="clip-rule:evenodd;fill:#ffffff;fill-rule:evenodd;stroke-width:0.26458332"
       inkscape:connector-curvature="0"
       id="path2"
       d="m -43.111208,261.42413 -0.695855,-0.68792 -0.256645,0.26458 v 0.30692 h 0.381 v 0.381 h 0.306916 z m 1.28852,-2.49238 c 0,-0.037 -0.0291,-0.0503 -0.0635,-0.0503 -0.01588,0 -0.0291,-0.008 -0.03704,0.008 -0.465666,0.44979 -0.923395,0.92339 -1.381125,1.38112 -0.01323,0.0132 -0.256645,0.23019 -0.256645,0.28575 0,0.0371 0.01323,0.0582 0.05556,0.0582 0.01588,0 0.0291,0 0.04233,-0.0132 0.460376,-0.45244 0.926042,-0.9181 1.383772,-1.37583 0.01323,-0.0212 0.256645,-0.23548 0.256645,-0.29369 z m -2.891895,-2.94217 c -0.875771,0 -1.5875,0.71173 -1.5875,1.5875 v 4.7625 c 0,0.87577 0.711729,1.5875 1.5875,1.5875 h 4.7625 c 0.87577,0 1.5875,-0.71173 1.5875,-1.5875 v -4.7625 c 0,-0.87577 -0.71173,-1.5875 -1.5875,-1.5875 z m 3.966104,3.61421 -2.4765,2.47121 H -44.45 v -1.23825 l 2.463271,-2.45798 z m -0.105834,-1.98966 c 0.269875,0.20637 0.537105,0.508 0.785813,0.76464 0.09525,0.0953 0.116417,0.17198 0.116417,0.27252 0,0.0582 -0.01588,0.14288 -0.05821,0.20109 -0.108479,0.14287 -0.373062,0.39422 -0.545041,0.55827 l -1.225021,-1.23032 c 0.309562,-0.28839 0.473604,-0.60325 0.746125,-0.60325 0.0635,0 0.129646,0 0.179916,0.037 z" />
  </g>
</svg>
